PathFileType	4	(X/Y/Z)	Kaydara	
DataRate	CameraRate	NumFrames	NumMarkers	Units	OrigDataRate	OrigDataStartFrame	OrigNumFrames	
60.00	60.00	4	74	mm	60.00	1166	141	
Frame#	Time	Z_lasi			Z_rasi			Z_rpsi			Z_lpsi			Z_fneck			Z_bneck			Z_fhead			Z_rhead			Z_lhead			Z_rshld			Z_relbtop			Z_relbext			Z_relblow			Z_rwrext			Z_rwrtop			Z_rwrlow			Z_lshld			Z_lelbext			Z_lelblow			Z_lelbtop			Z_lwrext			Z_lwrtop			Z_lwrlow			Z_rtopleg			Z_ltopleg			Z_rkneefr			Z_rkneebk			Z_rkneeis			Z_lkneefr			Z_lknssbk			Z_lkneeis			Z_rankfr			Z_rankis			Z_rankbk			Z_lankfr			Z_lankbk			Z_lankis			A_lasi			A_rasi			A_rpsi			A_lpsi			A_fneck			A_bneck			A_fhead			A_rhead			A_lhead			A_rshld			A_relbtop			A_relbext			A_relblow			A_rwrext			A_rwrtop			A_rwrlow			A_lshld			A_lelbext			A_lelblow			A_lelbtop			A_lwrext			A_lwrtop			A_lwrlow			A_rtopleg			A_ltopleg			A_rkneefr			A_rkneebk			A_rkneeis			A_lkneefr			A_lknssbk			A_lkneeis			A_rankfr			A_rankis			A_rankbk			A_lankfr			A_lankbk			A_lankis			
		X1	Y1	Z1	X2	Y2	Z2	X3	Y3	Z3	X4	Y4	Z4	X5	Y5	Z5	X6	Y6	Z6	X7	Y7	Z7	X8	Y8	Z8	X9	Y9	Z9	X10	Y10	Z10	X11	Y11	Z11	X12	Y12	Z12	X13	Y13	Z13	X14	Y14	Z14	X15	Y15	Z15	X16	Y16	Z16	X17	Y17	Z17	X18	Y18	Z18	X19	Y19	Z19	X20	Y20	Z20	X21	Y21	Z21	X22	Y22	Z22	X23	Y23	Z23	X24	Y24	Z24	X25	Y25	Z25	X26	Y26	Z26	X27	Y27	Z27	X28	Y28	Z28	X29	Y29	Z29	X30	Y30	Z30	X31	Y31	Z31	X32	Y32	Z32	X33	Y33	Z33	X34	Y34	Z34	X35	Y35	Z35	X36	Y36	Z36	X37	Y37	Z37	X38	Y38	Z38	X39	Y39	Z39	X40	Y40	Z40	X41	Y41	Z41	X42	Y42	Z42	X43	Y43	Z43	X44	Y44	Z44	X45	Y45	Z45	X46	Y46	Z46	X47	Y47	Z47	X48	Y48	Z48	X49	Y49	Z49	X50	Y50	Z50	X51	Y51	Z51	X52	Y52	Z52	X53	Y53	Z53	X54	Y54	Z54	X55	Y55	Z55	X56	Y56	Z56	X57	Y57	Z57	X58	Y58	Z58	X59	Y59	Z59	X60	Y60	Z60	X61	Y61	Z61	X62	Y62	Z62	X63	Y63	Z63	X64	Y64	Z64	X65	Y65	Z65	X66	Y66	Z66	X67	Y67	Z67	X68	Y68	Z68	X69	Y69	Z69	X70	Y70	Z70	X71	Y71	Z71	X72	Y72	Z72	X73	Y73	Z73	X74	Y74	Z74	

106	19.417	-237.08439	1078.33191	677.28806	-303.98142	1086.23459	481.23569	-140.55656	1114.82933	389.35413	-54.55639	1101.33118	618.84094	-242.25172	1454.26880	562.00428	-128.00604	1507.92770	551.20525	-302.21561	1675.43182	541.00349	-159.97026	1639.83276	458.49121	-147.18046	1647.12616	605.87322	-201.53196	1437.15378	348.09425	-163.99776	1118.23181	264.98484	-136.32097	1101.26053	317.42182	-229.31303	1126.91734	305.24887	-258.65154	889.20258	274.01703	-290.56332	902.15500	304.93570	-265.02975	897.22229	339.50981	-124.92763	1444.12949	737.63901	-85.22406	1126.96243	744.19739	-145.16719	1147.16270	807.88689	-76.20489	1146.47598	812.37297	-211.27178	892.24800	795.31784	-199.30923	883.52898	840.38574	-153.67895	879.67415	831.69022	-192.18945	924.42055	346.62804	-142.82852	895.75760	708.95447	-248.32130	421.00819	401.79726	-180.44708	450.76916	348.59501	-182.14853	430.26825	472.10442	-188.10240	447.80830	677.62939	-84.00076	473.52715	657.50214	-184.52724	442.50511	584.89727	-205.99880	179.40580	376.61633	-181.24540	175.06950	438.44749	-129.77834	172.43580	367.71069	-124.10498	164.94402	675.55649	-70.70519	166.42620	613.79936	-150.58113	173.60043	607.99103	-973.49297	1033.80722	466.68552	-959.48547	1039.69360	625.92888	-1116.86523	1034.00124	649.90837	-1096.73141	1039.43642	467.03270	-1038.47946	1375.19257	567.29805	-1176.08864	1410.47119	557.72614	-974.55978	1582.95273	591.16272	-1127.80884	1550.74173	662.66632	-1115.75134	1560.79178	499.80232	-1110.83092	1349.71939	739.18602	-982.61009	1121.01135	763.80875	-1002.99759	1060.40771	746.86874	-980.73967	1125.80643	703.97156	-847.17316	1253.50235	708.24707	-883.09715	1282.50671	706.80344	-892.78381	1272.65503	669.14291	-1074.62143	1355.63187	389.86618	-1036.58043	1047.21092	338.50071	-1000.13435	1069.57047	400.97618	-990.67093	1063.92662	347.54726	-929.74960	880.32471	470.79750	-900.04395	875.22141	441.64284	-878.48549	900.13420	473.52497	-1055.92751	875.30441	729.53888	-1029.31679	889.64783	391.87794	-1021.86028	450.87105	638.40111	-1128.54225	487.46616	683.95859	-1109.17343	486.37421	565.70107	-1008.24356	464.11510	506.15070	-1094.32556	480.50591	411.60530	-1115.61256	480.55733	535.77515	-1097.96249	166.16093	663.50922	-1130.84885	163.24665	596.90300	-1178.74962	155.56676	666.41006	-1066.47018	166.58171	455.95497	-1127.75589	168.57243	420.90889	-1125.80116	174.29094	510.38338 
107	19.433	-236.98709	1078.27751	677.74132	-304.06950	1086.24023	481.79436	-141.08089	1114.92310	390.16972	-54.56124	1101.44791	619.19907	-241.98589	1454.41345	562.63065	-127.86298	1507.94785	551.60263	-302.15662	1675.25833	542.42931	-160.02499	1640.38254	459.21486	-146.66235	1647.19208	606.62182	-201.77479	1437.30988	348.63361	-164.55532	1118.33885	265.57316	-136.80329	1101.34277	317.98130	-229.74327	1127.08679	305.90099	-259.07455	889.32152	274.55515	-290.80416	902.18224	305.39091	-265.30045	897.28149	340.00710	-124.92704	1444.17557	738.18344	-85.39995	1127.01706	744.53690	-145.42758	1147.18117	808.43498	-76.39677	1146.50574	812.82951	-210.81884	891.91536	796.15341	-198.88119	883.32108	841.23222	-153.08116	879.73389	832.16064	-192.13930	924.46053	347.10251	-142.63153	895.77568	709.32068	-247.94712	421.08788	401.98128	-180.12848	450.86025	348.79093	-182.21889	430.44834	472.62821	-187.64269	447.80758	677.69035	-83.57153	473.57735	657.43462	-184.22935	442.56119	584.99985	-205.90939	179.47582	376.68930	-181.09165	175.04642	438.55476	-129.67122	172.41447	367.76669	-123.95686	164.96387	675.60364	-70.58820	166.37856	613.89439	-150.45935	173.60506	607.93530	-973.41400	1033.81569	466.57089	-959.39056	1039.68033	626.06960	-1116.63918	1034.07578	649.83131	-1096.61476	1039.49127	467.00874	-1037.77016	1375.45914	567.33730	-1175.31891	1410.53375	558.05271	-974.09904	1583.26569	590.87219	-1127.33238	1550.92560	662.85439	-1115.50873	1560.83099	499.92626	-1110.68253	1349.82742	739.31870	-984.03564	1120.08087	763.76099	-1004.79034	1059.66019	746.77933	-982.98050	1124.45435	705.00381	-849.01314	1252.33604	707.56577	-884.83215	1281.34872	706.61911	-895.00069	1271.69708	669.02039	-1074.05251	1355.67032	389.79061	-1037.05910	1047.04300	338.73802	-1000.33821	1069.58328	400.91820	-991.02676	1063.79608	347.38403	-929.43611	880.42091	470.90984	-899.80232	875.51880	441.63059	-878.27591	900.50888	473.43037	-1055.68832	875.31235	729.53918	-1029.35081	889.62959	391.82659	-1021.64047	450.87193	638.42846	-1128.32619	487.53937	683.97278	-1109.00536	486.42120	565.64674	-1007.89253	464.17828	505.94048	-1094.24980	480.53722	411.57566	-1115.54230	480.59711	535.78785	-1097.66281	166.26284	663.08456	-1130.79147	163.27707	596.92669	-1178.67523	155.63360	666.43181	-1066.41090	166.58381	455.92266	-1127.72346	168.60559	420.88367	-1125.74692	174.29878	510.32520 
108	19.450	-236.99486	1078.29094	678.26561	-304.13191	1086.28670	482.38609	-141.31652	1115.01350	390.74013	-54.54374	1101.50803	619.59137	-241.52010	1454.38599	563.21857	-127.65714	1508.06366	552.15237	-302.83081	1674.47525	543.90034	-160.65273	1641.36459	460.13737	-146.91734	1647.53494	607.48852	-201.80264	1437.45468	349.13052	-164.97110	1118.41423	266.07214	-137.15344	1101.38596	318.46302	-230.17221	1127.12463	306.39696	-259.42980	889.40689	274.93509	-291.28473	902.27776	306.13220	-265.66927	897.36397	340.53623	-124.59864	1444.22211	738.64365	-85.62661	1126.96808	745.01427	-145.54937	1147.14279	808.90312	-76.47105	1146.48712	813.13576	-210.47005	891.57593	796.97220	-198.54450	883.19832	842.07886	-152.76788	879.68971	833.15338	-192.15717	924.50676	347.51415	-142.47974	895.76881	709.74297	-247.64559	421.16806	402.20024	-179.89223	450.91984	349.03423	-182.43176	430.58739	473.09803	-187.31403	447.76642	677.85278	-83.24246	473.57689	657.58133	-184.01363	442.56813	585.19222	-205.80666	179.55402	376.77845	-181.00664	175.04818	438.65082	-129.58716	172.41409	367.85625	-123.91020	164.99130	675.73517	-70.47924	166.34811	613.95412	-150.33886	173.71260	608.07003	-972.37602	1033.74771	465.67913	-959.23080	1039.69231	626.00071	-1116.52214	1034.10492	649.78561	-1096.46324	1039.59679	467.00195	-1037.31255	1375.70679	567.43523	-1174.77890	1410.62225	558.21465	-973.97606	1583.54080	590.55416	-1126.80595	1551.06232	662.93915	-1115.51910	1560.93735	500.06271	-1110.53658	1349.93835	739.44817	-985.72182	1118.92944	763.93326	-1007.07848	1058.69247	746.99974	-984.67720	1123.14857	704.68864	-850.15129	1250.32684	706.69189	-885.93491	1279.43047	705.98030	-896.15730	1269.81468	668.31070	-1073.31223	1355.79575	389.75815	-1037.47070	1046.97380	338.99311	-1000.05623	1069.67499	400.70705	-991.29639	1063.69537	347.21996	-929.26445	880.47028	471.06697	-899.71397	875.64964	441.52435	-878.19908	900.65147	473.31917	-1055.45708	875.30350	729.57909	-1029.42848	889.64821	391.78890	-1021.28090	450.93159	638.26546	-1128.07854	487.59422	683.99673	-1108.77007	486.46767	565.60417	-1007.84798	464.17717	505.92613	-1094.18159	480.56461	411.57444	-1115.38437	480.59944	535.76290	-1097.42836	166.28456	662.88506	-1130.73982	163.30757	596.96732	-1178.55415	155.67862	666.48727	-1066.38397	166.58609	455.90542	-1127.69989	168.63256	420.87830	-1125.79147	174.41513	510.38933 
109	19.467	-236.97012	1078.30872	678.77548	-304.14099	1086.38893	482.96398	-141.58777	1115.01610	391.44222	-54.51596	1101.52542	620.05219	-240.87349	1454.23950	563.85681	-127.41254	1508.24524	552.62348	-304.35486	1672.95776	545.25066	-161.66786	1642.57813	461.32019	-147.92239	1648.13858	608.64491	-201.62176	1437.58133	349.60426	-165.38952	1118.42712	266.70380	-137.57238	1101.40930	319.05264	-230.47623	1127.34924	307.05318	-260.24124	889.57481	275.61075	-291.81885	902.39609	306.85558	-266.11109	897.49168	341.22353	-124.25006	1444.17526	739.25522	-85.81396	1126.84525	745.40169	-145.54260	1147.09763	809.32640	-76.65517	1146.34216	813.66592	-210.40043	891.39084	797.83905	-198.52409	883.12439	842.94540	-152.76917	879.50989	834.31343	-192.20659	924.58054	347.98519	-142.35832	895.74333	710.25192	-247.42496	421.23211	402.52632	-179.68102	450.96809	349.38347	-182.54889	430.67413	473.53546	-187.09393	447.77668	678.06931	-82.98532	473.58223	657.74887	-183.83005	442.57488	585.40028	-205.74667	179.60468	376.88118	-180.94606	175.04757	438.75420	-129.51204	172.43624	367.97832	-123.82388	164.98333	675.80772	-70.38648	166.33106	614.03881	-150.23977	173.75376	608.19466	-972.00699	1033.80417	465.47852	-959.11026	1039.64188	625.80162	-1116.28639	1034.27719	649.74228	-1096.24855	1039.70726	466.96171	-1036.96457	1375.96588	567.42962	-1174.35402	1410.63995	558.20923	-974.05128	1583.90167	590.35103	-1126.66748	1551.14563	663.03879	-1115.70984	1561.09192	500.15862	-1110.34523	1350.05722	739.49753	-987.36900	1117.53220	764.23492	-1009.69589	1057.71729	747.75246	-986.41243	1121.48903	704.83246	-850.49156	1247.08130	705.59227	-885.85663	1276.48438	704.74312	-896.32904	1266.55663	667.24136	-1072.56699	1355.96558	389.78626	-1037.60033	1047.02225	339.11240	-999.54338	1069.93698	400.55332	-991.41251	1063.66798	347.02488	-929.25095	880.45975	470.96020	-899.77432	875.65620	441.41552	-878.18367	900.64529	473.18481	-1055.21461	875.30075	729.60037	-1029.50096	889.66843	391.78764	-1021.01830	450.96096	638.23769	-1127.86148	487.64767	684.03709	-1108.61855	486.48190	565.57697	-1007.81715	464.18625	505.95150	-1094.12659	480.57743	411.58665	-1115.25696	480.63034	535.80025	-1097.35863	166.31706	662.91946	-1130.70824	163.32415	597.00092	-1178.45848	155.73009	666.52588	-1066.31607	166.62041	455.90076	-1127.68127	168.67657	420.90340	-1125.57358	174.37321	510.33730 
